<svg xmlns="http://www.w3.org/2000/svg" viewBox="0 0 426 251" role="img" aria-label="sample cover">
  <defs>
    <linearGradient id="bg" x1="0" y1="0" x2="1" y2="1">
      <stop offset="0" stop-color="#1d1f22"/>
      <stop offset="1" stop-color="#42464c"/>
    </linearGradient>
    <linearGradient id="desk" x1="0" y1="0" x2="1" y2="0">
      <stop offset="0" stop-color="#64686d"/>
      <stop offset="1" stop-color="#4b4f55"/>
    </linearGradient>
    <filter id="grain" x="-20%" y="-20%" width="140%" height="140%">
      <feTurbulence type="fractalNoise" baseFrequency="0.9" numOctaves="1" seed="8" result="noise"/>
      <feColorMatrix in="noise" type="saturate" values="0"/>
      <feComponentTransfer>
        <feFuncA type="table" tableValues="0 0.08"/>
      </feComponentTransfer>
    </filter>
  </defs>
  <rect width="426" height="251" fill="url(#bg)"/>
  <rect x="16" y="18" width="262" height="178" rx="1" fill="#2a2d31" stroke="#7d838a" stroke-width="1"/>
  <g stroke="#a8adb3" stroke-width="1.2" opacity="0.65" fill="none">
    <path d="M35 45h52m10 0h30m16 0h63"/>
    <path d="M44 70c11-8 23-8 34 0m21 0c13-8 27-8 40 0"/>
    <path d="M48 99l20-5 23 7 29-9 21 8"/>
    <path d="M46 126h80m14 0h42m13 0h46"/>
    <path d="M39 152c12-3 23-3 34 0m14 0c12-3 25-3 38 0m18 0c12-3 24-3 36 0"/>
  </g>
  <ellipse cx="192" cy="134" rx="24" ry="40" fill="#d0d2d5"/>
  <rect x="182" y="168" width="17" height="35" rx="7" fill="#cbced1"/>
  <rect x="170" y="117" width="42" height="8" rx="4" fill="#d8dade"/>
  <rect x="219" y="108" width="43" height="5" rx="2" fill="#aaafb6" transform="rotate(-23 219 108)"/>
  <rect x="245" y="111" width="39" height="4" rx="2" fill="#81868d" transform="rotate(-23 245 111)"/>
  <rect x="254" y="170" width="148" height="59" fill="url(#desk)"/>
  <rect x="264" y="185" width="26" height="14" fill="#d6d8db" opacity="0.95"/>
  <rect x="299" y="190" width="32" height="12" fill="#9fa4aa" opacity="0.9"/>
  <rect x="338" y="181" width="10" height="10" rx="1" fill="#d8dade"/>
  <rect x="352" y="181" width="10" height="10" rx="1" fill="#c8ccd2"/>
  <rect width="426" height="251" filter="url(#grain)" opacity="0.34"/>
</svg>
